<svg id="svg3062" xmlns="http://www.w3.org/2000/svg" viewBox="0 0 367.53 367.64"><title>logo</title><g id="layer1"><path id="path3769" d="M117.83,19.06c-8.62.35-16.9,4.37-24.75,12.53-13,14.44-6.66,42-1.9,46.78,5.74,6.11,29.54,16.37,43.72,8l3,7.94c-8.46,6.19-17.35,15-19.88,28.9-2.88,21.7,1,41.26,8,61.66a112.2,112.2,0,0,0-17,29.87,94.54,94.54,0,0,0-5.9,35.38l-62,34.22c-10.8-26.82-17-54.27-20.21-82.22C15.78,261.85,9.45,310.4,89.24,363.18a286.42,286.42,0,0,1-43.16-67.25c13.73-6.33,57-28.4,57-28.4l24.81,1,7-20.9,31.87-16.91c-3.31,7.64-9.64,13.12-9.94,22.91l-3,112.44c-24.11,4.52-33.63,11.07-33.88,18.9h68.72l21.34-96.34-5.65-.69,1.22-14.44c15.43-14.52,25.88-35.47,36.84-55.75-1.19,24.73,8.46,45,19.84,65.66,18.23,28.52,50,49.17,78.13,71.44-1.71,13.16-13.49,21.74-21.85,31.87l27.07-.72,12.22-9,27.84-48.75-15.84-4-58-65.65-2.79,5.9c-13.54-9.73-13.75-24.55-15.84-38.75,1.88-24.79-7.42-43.46-17.25-61.75l7.22-6c.87,3.95,2.49,4.3,4,5.07,10.45-3.15,17.48-9.53,20-20-1.9-5.22-4.88-9.7-12-11l-3.91-22.91C275.78,45,248.11,41.55,239.12,42.71c-29.39,3.75-58,4-80.29,25.72-2.71-.26-5.78-.2-4-5,1.61-20.72-7.25-33.21-13-36.84-7.67-4.84-15.12-7.45-22.32-7.56-.57,0-1.14,0-1.72,0ZM242.12,78.62c15.59-.52,23.86,20,34.21,65.5l-7,6.34L227.12,83.93c5.72-3.36,10.63-5.16,15-5.31Zm-86.41,71.5c6.55,3.6,12.64,6.44,32,33.78l-8.1,19.69L130,234.53c2.62-16.78,14.58-26.47,24.22-38C157.68,181.57,157.9,166.05,155.71,150.12Z" transform="translate(-18.18 -19.04)"/></g></svg>